<?xml version="1.0" encoding="utf-8"?>
<!-- Generator: Adobe Illustrator 16.0.0, SVG Export Plug-In . SVG Version: 6.00 Build 0)  -->
<!DOCTYPE svg PUBLIC "-//W3C//DTD SVG 1.1//EN" "http://www.w3.org/Graphics/SVG/1.1/DTD/svg11.dtd">
<svg version="1.1" id="Capa_1" xmlns="http://www.w3.org/2000/svg" xmlns:xlink="http://www.w3.org/1999/xlink" x="0px" y="0px"
	 width="5867.72px" height="4125.741px" viewBox="5257.56 870.99 5867.72 4125.741"
	 style="enable-background:new 5257.56 870.99 5867.72 4125.741;" xml:space="preserve">
<g>
	<g>
		<path d="M11073.594,1165.763L9294.035,2933.86l1779.559,1768.097c32.168-67.238,51.686-141.57,51.686-220.945V1386.707
			C11125.279,1307.322,11105.762,1233.001,11073.594,1165.763z"/>
	</g>
</g>
<g>
	<g>
		<path d="M10609.563,870.99H5773.277c-79.387,0-153.707,19.517-220.946,51.686l2274.465,2263.002
			c201.106,201.107,528.14,201.107,729.247,0l2274.465-2263.002C10763.27,890.507,10688.949,870.99,10609.563,870.99z"/>
	</g>
</g>
<g>
	<g>
		<path d="M5309.246,1165.763c-32.17,67.238-51.687,141.559-51.687,220.944v3094.305c0,79.387,19.517,153.719,51.687,220.945
			L7088.804,2933.86L5309.246,1165.763z"/>
	</g>
</g>
<g>
	<g>
		<path d="M9050.949,3176.946l-251.82,251.82c-335.09,335.09-880.341,335.09-1215.431,0l-251.808-251.82L5552.332,4945.043
			c67.239,32.17,141.559,51.688,220.946,51.688h4836.285c79.387,0,153.707-19.518,220.945-51.688L9050.949,3176.946z"/>
	</g>
</g>
</svg>
