<?xml version="1.0" encoding="utf-8"?>
<!-- Generator: Adobe Illustrator 16.0.0, SVG Export Plug-In . SVG Version: 6.00 Build 0)  -->
<!DOCTYPE svg PUBLIC "-//W3C//DTD SVG 1.1//EN" "http://www.w3.org/Graphics/SVG/1.1/DTD/svg11.dtd">
<svg version="1.1" id="Layer_1" xmlns="http://www.w3.org/2000/svg" xmlns:xlink="http://www.w3.org/1999/xlink" x="0px" y="0px"
	 width="14.423px" height="14.633px" viewBox="0 0 14.423 14.633" style="enable-background:new 0 0 14.423 14.633;"
	 xml:space="preserve">
<g>
	<defs>
		<rect id="SVGID_1_" y="0" width="14.423" height="14.633"/>
	</defs>
	<clipPath id="SVGID_2_">
		<use xlink:href="#SVGID_1_"  style="overflow:visible;"/>
	</clipPath>
	<path style="clip-path:url(#SVGID_2_);fill:#1C2949;" d="M1.149,6.472c1.159,1.622,0.463,0.927,2.085,2.78s2.659,3.013,6.023,4.635
		c0.941,0.453,3.123,1.243,4.172-0.232c0.195-0.275,0.694-1.159,0.694-1.159s0.695-0.926-0.694-1.622l-2.085-1.389
		c0,0-0.695-0.696-1.391,0.463c-0.696,1.158-0.721,1.112-1.39,0.926c-0.838-0.23-1.159-0.694-2.781-2.085
		c0,0-0.695-0.694-2.085-2.547c0,0-0.695-1.159,0.695-1.854c0,0,1.39-0.464-0.232-2.317L3.234,0.68c0,0-0.926-1.391-2.317,0.231"/>
	<path style="clip-path:url(#SVGID_2_);fill:none;stroke:#1C2949;stroke-width:0.25;stroke-miterlimit:10;" d="M1.149,6.472
		c1.159,1.622,0.463,0.927,2.085,2.78s2.659,3.013,6.023,4.635c0.941,0.453,3.123,1.243,4.172-0.232
		c0.195-0.275,0.694-1.159,0.694-1.159s0.695-0.926-0.694-1.622l-2.085-1.389c0,0-0.695-0.696-1.391,0.463
		c-0.696,1.158-0.721,1.112-1.39,0.926c-0.838-0.23-1.159-0.694-2.781-2.085c0,0-0.695-0.694-2.085-2.547
		c0,0-0.695-1.159,0.695-1.854c0,0,1.39-0.464-0.232-2.317L3.234,0.68c0,0-0.926-1.391-2.317,0.231"/>
	<path style="clip-path:url(#SVGID_2_);fill:#1C2949;" d="M3.235,0.68c0,0-0.927-1.391-2.317,0.231c0,0-0.536,0.449-0.695,1.391
		C0.045,3.355-0.009,4.85,1.15,6.472"/>
	<path style="clip-path:url(#SVGID_2_);fill:none;stroke:#1C2949;stroke-width:0.25;stroke-miterlimit:10;" d="M3.235,0.68
		c0,0-0.927-1.391-2.317,0.231c0,0-0.536,0.449-0.695,1.391C0.045,3.355-0.009,4.85,1.15,6.472"/>
</g>
</svg>
