<?xml version="1.0" encoding="utf-8"?>
<!-- Generator: Adobe Illustrator 16.0.0, SVG Export Plug-In . SVG Version: 6.00 Build 0)  -->
<!DOCTYPE svg PUBLIC "-//W3C//DTD SVG 1.1//EN" "http://www.w3.org/Graphics/SVG/1.1/DTD/svg11.dtd">
<svg version="1.1" id="Capa_1" xmlns="http://www.w3.org/2000/svg" xmlns:xlink="http://www.w3.org/1999/xlink" x="0px" y="0px"
	 width="841.89px" height="595.281px" viewBox="0 0 841.89 595.281" style="enable-background:new 0 0 841.89 595.281;"
	 xml:space="preserve">
<g>
	<g>
		<path d="M709.771,207.338l-32.629-8.128c-5.219-22.104-13.895-43.038-25.867-62.405l17.324-28.822
			c2.75-4.575,2.033-10.435-1.742-14.209l-41.971-41.971c-3.775-3.774-9.635-4.491-14.209-1.743l-28.822,17.325
			c-19.367-11.972-40.301-20.65-62.404-25.867l-8.129-32.629c-1.289-5.18-5.941-8.814-11.279-8.814h-59.346
			c-5.338,0-9.99,3.635-11.279,8.814l-8.128,32.629c-22.104,5.218-43.038,13.895-62.406,25.867L330.061,50.06
			c-4.571-2.75-10.434-2.033-14.208,1.743l-41.971,41.971c-3.774,3.774-4.492,9.634-1.743,14.209l17.326,28.824
			c-7.216,11.689-13.291,24.065-18.098,36.885c-2.254,6.012,0.792,12.711,6.803,14.966c6.018,2.256,12.711-0.793,14.966-6.803
			c5.05-13.468,11.674-26.388,19.685-38.402c2.495-3.74,2.606-8.584,0.291-12.437l-16.366-27.226l29.127-29.127l27.226,16.367
			c3.851,2.316,8.694,2.202,12.437-0.291c20.616-13.747,43.35-23.169,67.566-28.005c4.41-0.881,7.916-4.226,9.002-8.59l7.678-30.823
			h41.18l7.68,30.823c1.086,4.364,4.592,7.708,9.002,8.59c24.215,4.835,46.949,14.258,67.564,28.005
			c3.742,2.494,8.586,2.607,12.438,0.291l27.227-16.367l29.127,29.127l-16.367,27.226c-2.316,3.853-2.205,8.697,0.291,12.437
			c13.746,20.616,23.17,43.35,28.004,67.565c0.883,4.41,4.227,7.917,8.59,9.002l30.824,7.678v41.18l-30.824,7.678
			c-4.363,1.087-7.707,4.592-8.59,9.002c-4.834,24.216-14.258,46.948-28.004,67.565c-2.494,3.74-2.607,8.584-0.291,12.438
			l16.367,27.225l-29.127,29.127l-27.227-16.365c-3.852-2.318-8.695-2.205-12.438,0.289c-14.742,9.832-30.635,17.457-47.396,22.781
			v-42.16c55.469-23.063,92.195-77.557,92.195-138.171c0-66.723-43.902-123.379-104.334-142.62
			c-0.369-0.138-0.746-0.259-1.129-0.359c-13.967-4.325-28.803-6.657-44.174-6.657c-65.345,0-122.663,42.193-142.431,103.672
			H172.125c-26.92,0.002-48.82,21.902-48.82,48.821v295.242c0,26.918,21.9,48.82,48.82,48.82H478.99c26.92,0,48.82-21.9,48.82-48.82
			v-93.502c19.059-5.332,37.178-13.27,54.047-23.691l28.822,17.326c4.574,2.752,10.434,2.033,14.209-1.744l41.971-41.971
			c3.773-3.773,4.492-9.633,1.742-14.209l-17.324-28.822c11.971-19.367,20.65-40.301,25.867-62.405l32.627-8.128
			c5.18-1.289,8.814-5.941,8.814-11.279v-59.347C718.585,213.278,714.951,208.626,709.771,207.338z M470.369,121.9
			c1.555,0.001,3.1,0.04,4.641,0.095l-2.377,1.2c-10.068,5.086-16.461,14.846-17.1,26.109c-0.639,11.264,4.613,21.683,14.047,27.874
			c2.254,1.479,3.6,3.973,3.6,6.67v18.477h-42.291c4.318-5.854,6.32-13.064,5.547-20.526c-0.99-9.555-6.328-17.789-14.646-22.59
			c-1.57-0.906-2.681-2.444-3.048-4.217l-4.171-20.146C431.515,126.517,450.503,121.9,470.369,121.9z M393.531,147.903l2.444,11.806
			c1.712,8.259,6.884,15.418,14.189,19.635c2.446,1.413,3.02,3.646,3.144,4.852c0.125,1.206,0.021,3.51-2.085,5.394l-14.238,12.738
			h-44.378C361.139,180.39,375.464,161.719,393.531,147.903z M504.562,546.386c0,14.1-11.473,25.572-25.572,25.572H172.125
			c-14.101,0-25.572-11.473-25.572-25.572V309.263h358.01V546.386z M504.562,286.016h-358.01v-34.872
			c0-14.1,11.472-25.573,25.572-25.573H478.99c14.102,0,25.574,11.472,25.574,25.573v34.872H504.562z M496.425,205.556v-21.707
			c0-10.557-5.27-20.317-14.096-26.106c-3.473-2.28-3.666-5.741-3.59-7.122c0.078-1.381,0.662-4.8,4.371-6.674l29.357-14.828
			c49.057,17.382,84.289,64.235,84.289,119.171c0,25.605-7.771,49.911-21.383,70.26l-4.111-11.564
			c-6.688-18.806-23.822-31.857-43.453-33.561v-22.28C527.81,230.368,514.757,212.592,496.425,205.556z M527.81,296.832
			c9.789,1.583,18.152,8.394,21.547,17.941l8.713,24.504c-8.863,8.563-19.037,15.865-30.262,21.596v-64.041H527.81z"/>
	</g>
</g>
<g>
	<g>
		<path d="M466.203,244.171H327.992c-6.419,0-11.623,5.205-11.623,11.623c0,6.417,5.204,11.623,11.623,11.623h138.211
			c6.418,0,11.623-5.206,11.623-11.623C477.826,249.376,472.621,244.171,466.203,244.171z"/>
	</g>
</g>
<g>
	<g>
		<path d="M233.787,247.576c-2.162-2.163-5.161-3.405-8.229-3.405c-3.057,0-6.056,1.243-8.218,3.405
			c-2.161,2.161-3.405,5.161-3.405,8.218s1.244,6.056,3.405,8.216c2.174,2.164,5.161,3.407,8.218,3.407
			c3.068,0,6.056-1.244,8.229-3.407c2.163-2.161,3.394-5.149,3.394-8.216C237.182,252.737,235.95,249.739,233.787,247.576z"/>
	</g>
</g>
<g>
	<g>
		<path d="M189.582,247.576c-2.162-2.163-5.16-3.405-8.217-3.405c-3.058,0-6.056,1.243-8.217,3.405
			c-2.163,2.164-3.406,5.161-3.406,8.218s1.243,6.056,3.406,8.216c2.161,2.164,5.16,3.407,8.217,3.407
			c3.057,0,6.057-1.244,8.217-3.407c2.161-2.161,3.406-5.16,3.406-8.216S191.745,249.739,189.582,247.576z"/>
	</g>
</g>
<g>
	<g>
		<path d="M277.98,247.576c-2.162-2.163-5.16-3.405-8.217-3.405c-3.056,0-6.056,1.243-8.217,3.405
			c-2.162,2.163-3.406,5.161-3.406,8.218s1.243,6.056,3.406,8.216c2.163,2.164,5.161,3.407,8.217,3.407
			c3.057,0,6.057-1.244,8.217-3.407c2.161-2.161,3.407-5.16,3.407-8.216S280.144,249.739,277.98,247.576z"/>
	</g>
</g>
<g>
	<g>
		<path d="M422.822,360.408h-78.667c-6.419,0-11.623,5.205-11.623,11.623s5.205,11.623,11.623,11.623h78.667
			c6.418,0,11.623-5.205,11.623-11.623C434.445,365.611,429.24,360.408,422.822,360.408z"/>
	</g>
</g>
<g>
	<g>
		<path d="M480.744,475.402c-2.164-2.164-5.148-3.406-8.217-3.406c-3.057,0-6.057,1.242-8.217,3.406
			c-2.162,2.162-3.406,5.16-3.406,8.217s1.244,6.057,3.406,8.217c2.16,2.174,5.16,3.406,8.217,3.406s6.055-1.234,8.217-3.406
			c2.162-2.162,3.406-5.16,3.406-8.217C484.15,480.56,482.906,477.562,480.744,475.402z"/>
	</g>
</g>
<g>
	<g>
		<path d="M426.294,471.998h-82.14c-6.419,0-11.623,5.205-11.623,11.625c0,6.418,5.205,11.623,11.623,11.623h82.14
			c6.42,0,11.623-5.205,11.623-11.623S432.714,471.998,426.294,471.998z"/>
	</g>
</g>
<g>
	<g>
		<path d="M472.527,416.201H344.155c-6.419,0-11.623,5.205-11.623,11.623c0,6.416,5.205,11.623,11.623,11.623h128.372
			c6.42,0,11.625-5.205,11.625-11.623C484.152,421.404,478.947,416.201,472.527,416.201z"/>
	</g>
</g>
<g>
	<g>
		<path d="M292.957,360.408h-111.59c-6.419,0-11.623,5.205-11.623,11.623v111.59c0,6.42,5.205,11.625,11.623,11.625h111.59
			c6.419,0,11.625-5.205,11.625-11.625v-111.59C304.58,365.613,299.376,360.408,292.957,360.408z M281.333,471.998H192.99v-88.344
			h88.343V471.998z"/>
	</g>
</g>
<g>
	<g>
		<path d="M660.318,446.037c-6.418,0-11.623,5.205-11.623,11.623v67.805h-50.65c1.857-4.254,1.055-9.389-2.424-12.867
			c-4.541-4.539-11.898-4.539-16.441,0l-17.746,17.746c-4.539,4.539-4.539,11.898,0,16.439l17.746,17.748
			c2.271,2.27,5.246,3.404,8.219,3.404c2.975,0,5.951-1.135,8.221-3.404c4.338-4.338,4.518-11.25,0.561-15.816h64.139
			c6.418,0,11.623-5.205,11.623-11.623v-79.43C671.943,451.242,666.738,446.037,660.318,446.037z"/>
	</g>
</g>
<g>
	<g>
		<path d="M270.051,49.972l-17.748-17.747c-4.54-4.538-11.9-4.538-16.44,0c-3.894,3.895-4.437,9.858-1.651,14.342h-52.789
			c-6.419,0-11.624,5.205-11.624,11.625v69.002c0,6.42,5.205,11.625,11.624,11.625c6.419,0,11.624-5.206,11.624-11.624V69.815
			h41.166c-2.785,4.484-2.243,10.447,1.651,14.342c2.271,2.27,5.245,3.404,8.219,3.404s5.949-1.136,8.219-3.404l17.748-17.747
			c2.18-2.18,3.404-5.137,3.404-8.219C273.455,55.109,272.229,52.152,270.051,49.972z"/>
	</g>
</g>
<g>
	<g>
		<path d="M189.64,161.887c-2.162-2.163-5.16-3.405-8.217-3.405c-3.056,0-6.056,1.243-8.217,3.405
			c-2.163,2.161-3.406,5.16-3.406,8.229c0,3.057,1.243,6.045,3.406,8.217c2.161,2.163,5.161,3.395,8.217,3.395
			c3.057,0,6.057-1.234,8.217-3.395c2.161-2.173,3.407-5.16,3.407-8.217C193.047,167.047,191.803,164.062,189.64,161.887z"/>
	</g>
</g>
</svg>
