<?xml version="1.0" encoding="utf-8"?>
<!-- Generator: Adobe Illustrator 16.0.0, SVG Export Plug-In . SVG Version: 6.00 Build 0)  -->
<!DOCTYPE svg PUBLIC "-//W3C//DTD SVG 1.1//EN" "http://www.w3.org/Graphics/SVG/1.1/DTD/svg11.dtd">
<svg version="1.1" id="Capa_1" xmlns="http://www.w3.org/2000/svg" xmlns:xlink="http://www.w3.org/1999/xlink" x="0px" y="0px"
	 width="841.89px" height="595.281px" viewBox="0 0 841.89 595.281" style="enable-background:new 0 0 841.89 595.281;"
	 xml:space="preserve">
<g>
	<g>
		<path d="M285.908,152.72c-5.786-2.781-12.735-0.342-15.514,5.447l-13.063,27.201l-14.243-27.512
			c-2.026-3.915-6.07-6.355-10.5-6.281c-4.407,0.066-8.397,2.619-10.306,6.592l-13.063,27.201l-14.243-27.513
			c-2.952-5.702-9.966-7.932-15.67-4.981c-5.703,2.952-7.932,9.968-4.98,15.67l24.957,48.21c2.026,3.915,6.042,6.319,10.5,6.281
			c4.408-0.066,8.399-2.618,10.307-6.591l13.063-27.201l14.243,27.512c2,3.862,5.984,6.282,10.324,6.282
			c0.058,0,0.118,0,0.176-0.001c4.408-0.066,8.398-2.619,10.306-6.592l23.154-48.211
			C294.135,162.444,291.696,155.499,285.908,152.72z"/>
	</g>
</g>
<g>
	<g>
		<path d="M407.681,152.72c-5.787-2.781-12.734-0.342-15.513,5.447l-13.063,27.201l-14.243-27.512
			c-2.026-3.915-6.08-6.355-10.5-6.281c-4.408,0.066-8.398,2.619-10.306,6.592l-13.064,27.201l-14.242-27.512
			c-2.952-5.702-9.969-7.93-15.67-4.981c-5.703,2.952-7.932,9.968-4.981,15.67l24.958,48.211c2.027,3.915,6.111,6.345,10.5,6.281
			c4.408-0.066,8.398-2.619,10.306-6.592l13.063-27.201l14.243,27.512c2,3.862,5.984,6.282,10.324,6.282
			c0.058,0,0.117,0,0.175-0.001c4.407-0.067,8.398-2.62,10.306-6.592l23.154-48.211C415.908,162.444,413.469,155.499,407.681,152.72
			z"/>
	</g>
</g>
<g>
	<g>
		<path d="M529.455,152.718c-5.787-2.781-12.734-0.342-15.514,5.447l-13.063,27.2l-14.244-27.512
			c-2.025-3.915-6.09-6.355-10.5-6.281c-4.406,0.066-8.396,2.618-10.305,6.592l-13.064,27.2l-14.242-27.512
			c-2.951-5.702-9.969-7.931-15.67-4.981c-5.703,2.952-7.932,9.968-4.981,15.67l24.958,48.21c2.027,3.915,6.115,6.345,10.5,6.281
			c4.408-0.066,8.398-2.618,10.307-6.592l13.063-27.2l14.242,27.512c2,3.862,5.984,6.282,10.324,6.282c0.059,0,0.117,0,0.176-0.001
			c4.408-0.066,8.398-2.618,10.307-6.592l23.154-48.21C537.681,162.444,535.244,155.499,529.455,152.718z"/>
	</g>
</g>
<g>
	<g>
		<path d="M375.601,260.363h-113.14c-6.421,0-11.627,5.205-11.627,11.626s5.206,11.626,11.627,11.626h113.14
			c6.421,0,11.626-5.205,11.626-11.626S382.022,260.363,375.601,260.363z"/>
	</g>
</g>
<g>
	<g>
		<path d="M201.726,263.772c-2.174-2.174-5.163-3.407-8.22-3.407c-3.069,0-6.058,1.232-8.231,3.407
			c-2.163,2.163-3.395,5.15-3.395,8.22c0,3.058,1.232,6.057,3.395,8.22s5.162,3.407,8.231,3.407c3.058,0,6.046-1.244,8.22-3.407
			c2.163-2.163,3.406-5.162,3.406-8.22C205.132,268.934,203.889,265.935,201.726,263.772z"/>
	</g>
</g>
<g>
	<g>
		<path d="M375.601,390.578h-113.14c-6.421,0-11.627,5.205-11.627,11.627c0,6.42,5.206,11.625,11.627,11.625h113.14
			c6.421,0,11.626-5.205,11.626-11.625C387.228,395.783,382.022,390.578,375.601,390.578z"/>
	</g>
</g>
<g>
	<g>
		<path d="M201.726,393.976c-2.174-2.16-5.163-3.395-8.22-3.395c-3.069,0-6.058,1.234-8.22,3.395
			c-2.174,2.174-3.418,5.162-3.418,8.232c0,3.057,1.244,6.045,3.418,8.221c2.162,2.162,5.15,3.406,8.22,3.406
			c3.058,0,6.046-1.244,8.22-3.406c2.163-2.176,3.406-5.164,3.406-8.221C205.132,399.14,203.889,396.15,201.726,393.976z"/>
	</g>
</g>
<g>
	<g>
		<path d="M375.601,325.466h-113.14c-6.421,0-11.627,5.207-11.627,11.627s5.206,11.625,11.627,11.625h113.14
			c6.421,0,11.626-5.205,11.626-11.625S382.022,325.466,375.601,325.466z"/>
	</g>
</g>
<g>
	<g>
		<path d="M201.726,328.869c-2.163-2.16-5.163-3.406-8.232-3.406c-3.058,0-6.046,1.244-8.22,3.406
			c-2.163,2.162-3.395,5.162-3.395,8.221c0,3.057,1.232,6.057,3.395,8.219c2.174,2.176,5.162,3.408,8.22,3.408
			c3.069,0,6.058-1.232,8.232-3.408c2.163-2.162,3.395-5.162,3.395-8.219C205.121,334.031,203.889,331.031,201.726,328.869z"/>
	</g>
</g>
<g>
	<g>
		<path d="M201.726,459.099c-2.163-2.164-5.163-3.408-8.232-3.408c-3.058,0-6.046,1.244-8.22,3.408
			c-2.163,2.16-3.395,5.15-3.395,8.219c0,3.057,1.232,6.057,3.395,8.219c2.174,2.162,5.162,3.406,8.22,3.406
			c3.069,0,6.058-1.242,8.232-3.406c2.163-2.162,3.406-5.162,3.406-8.219C205.132,464.259,203.889,461.259,201.726,459.099z"/>
	</g>
</g>
<g>
	<g>
		<path d="M331.42,455.689h-68.959c-6.421,0-11.627,5.207-11.627,11.627s5.206,11.627,11.627,11.627h68.959
			c6.421,0,11.626-5.207,11.626-11.627S337.842,455.689,331.42,455.689z"/>
	</g>
</g>
<g>
	<g>
		<path d="M383.821,459.099c-2.163-2.164-5.162-3.408-8.22-3.408c-3.058,0-6.057,1.244-8.22,3.408
			c-2.163,2.16-3.407,5.16-3.407,8.219c0,3.057,1.244,6.057,3.407,8.219s5.162,3.406,8.22,3.406c3.058,0,6.058-1.242,8.22-3.406
			s3.406-5.162,3.406-8.219C387.228,464.259,385.984,461.259,383.821,459.099z"/>
	</g>
</g>
<g>
	<g>
		<path d="M676.439,380.189h-20.637v-19.766c0-6.42-5.205-11.627-11.627-11.627h-68.84c1.199-9.961-2.008-20.357-9.637-27.986
			c-1.998-1.996-3.096-4.65-3.096-7.475s1.098-5.479,3.096-7.475c4.541-4.539,4.541-11.902,0-16.443
			c-4.539-4.54-11.902-4.54-16.443,0c-13.188,13.187-13.188,34.648,0,47.835c3.115,3.115,3.871,7.707,2.277,11.543H444.199
			c-6.422,0-11.627,5.207-11.627,11.627v170.984c0,15.414,5.488,29.572,14.615,40.619h-265.75c-19.232,0-34.88-15.646-34.88-34.879
			V58.133c0-19.232,15.647-34.88,34.88-34.88H465v46.606c0,32.055,26.078,58.133,58.133,58.133h46.602v123.142
			c0,6.421,5.205,11.626,11.627,11.626s11.627-5.205,11.627-11.626V116.366c0-3.083-1.225-6.041-3.406-8.221L484.847,3.405
			C482.667,1.226,479.708,0,476.626,0H181.438c-32.054,0-58.133,26.078-58.133,58.133v479.015c0,32.055,26.079,58.133,58.133,58.133
			h315.007h84.918h10.566c35.219,0,63.873-28.654,63.873-63.873v-9.375h20.637c23.238,0,42.146-18.906,42.146-42.146v-57.551
			C718.585,399.095,699.677,380.189,676.439,380.189z M488.251,39.698l65.041,65.042h-30.16c-19.232,0-34.881-15.647-34.881-34.88
			V39.698z M632.548,391.816v118.59v21.002c0,22.396-18.221,40.619-40.619,40.619h-10.568h-84.918
			c-22.396,0-40.619-18.223-40.619-40.619V372.05h176.725V391.816z M695.332,479.886c0,10.418-8.475,18.893-18.893,18.893h-20.637
			v-95.338h20.637c10.418,0,18.893,8.477,18.893,18.895V479.886z"/>
	</g>
</g>
<g>
	<g>
		<path d="M511.74,285.618c-1.996-1.996-3.098-4.65-3.098-7.475c0-2.823,1.102-5.478,3.098-7.475c4.541-4.54,4.541-11.902,0-16.443
			c-4.539-4.542-11.902-4.541-16.443,0c-6.389,6.389-9.906,14.883-9.906,23.917c0,9.035,3.518,17.529,9.906,23.917
			c4.121,4.121,4.121,10.826,0,14.947c-4.541,4.545-4.539,11.904,0,16.445c2.271,2.27,5.246,3.406,8.221,3.406
			c2.977,0,5.953-1.137,8.223-3.406C524.925,320.265,524.925,298.806,511.74,285.618z"/>
	</g>
</g>
<g>
	<g>
		<path d="M497.97,445.878c-6.42,0-11.625,5.207-11.625,11.627v64.527c0,6.42,5.205,11.627,11.625,11.627
			c6.422,0,11.627-5.207,11.627-11.627v-64.527C509.597,451.085,504.392,445.878,497.97,445.878z"/>
	</g>
</g>
<g>
	<g>
		<path d="M506.191,405.302c-2.162-2.176-5.162-3.406-8.221-3.406c-3.057,0-6.057,1.232-8.219,3.406
			c-2.164,2.162-3.406,5.152-3.406,8.221c0,3.057,1.242,6.045,3.406,8.219c2.162,2.162,5.162,3.406,8.219,3.406
			c3.059,0,6.059-1.244,8.221-3.406s3.406-5.162,3.406-8.219C509.597,410.453,508.353,407.464,506.191,405.302z"/>
	</g>
</g>
</svg>
