<?xml version="1.0" encoding="utf-8"?>
<!-- Generator: Adobe Illustrator 16.0.0, SVG Export Plug-In . SVG Version: 6.00 Build 0)  -->
<!DOCTYPE svg PUBLIC "-//W3C//DTD SVG 1.1//EN" "http://www.w3.org/Graphics/SVG/1.1/DTD/svg11.dtd">
<svg version="1.1" id="Layer_1" xmlns="http://www.w3.org/2000/svg" xmlns:xlink="http://www.w3.org/1999/xlink" x="0px" y="0px"
	 width="512px" height="512px" viewBox="0 0 512 512" style="enable-background:new 0 0 512 512;" xml:space="preserve">
<path d="M444.988,221.609c-2.629,0-5.211,1.07-7.07,2.93s-2.93,4.441-2.93,7.07s1.07,5.211,2.93,7.07s4.441,2.93,7.07,2.93
	s5.211-1.07,7.07-2.93s2.93-4.441,2.93-7.07s-1.07-5.211-2.93-7.07S447.617,221.609,444.988,221.609z"/>
<path d="M266.813,104v86.195c0,5.523,4.48,10,10,10h86.195c5.52,0,10-4.477,10-10c0-53.043-43.152-96.195-96.195-96.195
	C271.293,94,266.813,98.477,266.813,104z M286.813,114.652c34.031,4.48,61.059,31.512,65.543,65.543h-65.543V114.652z"/>
<path d="M509.07,336.789l-81.063-81.059c-5.551-5.551-12.93-8.609-20.777-8.609s-15.23,3.059-20.777,8.605
	c-2.906,2.906-5.121,6.316-6.582,10.031c-10.594-4.242-23.176-2.082-31.742,6.484c-5.102,5.102-8.09,11.754-8.539,18.895
	c-6.879,0.441-13.629,3.277-18.875,8.523c-2.32,2.32-4.164,4.938-5.543,7.73l-12.168-12.168
	c19.145-18.133,29.984-43.152,29.984-69.789c0-5.52-4.477-10-10-10h-76.195v-76.191c0-5.523-4.477-10-10-10
	c-53.039,0-96.191,43.152-96.191,96.191c0,53.043,43.152,96.195,96.191,96.195c3.023,0,6.063-0.145,9.074-0.426l24.679,24.68
	H159.668c-5.523,0-10,4.48-10,10v48c0,5.523,4.477,10,10,10h106.515c-0.168,9.313,4.043,18.301,11.41,24.113H77.008v-10.281
	l46.742-54.168c7.063-8.188,8.969-19.512,4.969-29.563c-3.418-8.59-10.508-14.875-19.445-17.246
	c-8.938-2.367-18.207-0.418-25.434,5.355l-6.832,5.457V74h20v62c0,5.523,4.477,10,10,10s10-4.477,10-10V74h317.984v119.504
	c0,5.523,4.477,10,10,10c5.52,0,10-4.477,10-10V42c0-23.16-18.844-42-42-42H99.008c-23.16,0-42,18.84-42,42v200.863
	c-0.309,0.305-0.609,0.621-0.883,0.973l-38.688,49.438C6.192,307.641,0,325.598,0,343.844v158.152c0,5.523,4.477,10,10,10
	s10-4.477,10-10V343.844c0-13.797,4.684-27.383,13.188-38.246l23.82-30.438v83.176c0,5.523,4.477,10,10,10
	c2.363,0,4.527-0.824,6.238-2.191c0,0.004,0.004,0.004,0.004,0.004l23.07-18.426c2.223-1.777,5.078-2.379,7.828-1.648
	c2.754,0.73,4.938,2.664,5.988,5.309c1.23,3.094,0.645,6.582-1.531,9.102l-49.168,56.98c0,0.004,0.004,0.004,0.004,0.008
	c-1.512,1.75-2.434,4.031-2.434,6.527v46c0,23.156,18.84,42,42,42h313.98c6.164,0,12.102-1.313,17.656-3.887
	c4.402,1.242,8.82,2.449,13.258,3.578c0.828,0.207,1.656,0.309,2.473,0.309c4.465,0,8.535-3.012,9.684-7.535
	c1.363-5.355-1.871-10.797-7.227-12.156c-43.672-11.109-85.66-28.07-124.797-50.422l-32.871-18.773
	c-3.848-2.195-5.789-6.73-4.719-11.031c1.313-5.289,6.691-8.543,11.988-7.262l43.723,10.609c4.352,1.059,8.883-0.914,11.078-4.82
	s1.52-8.801-1.648-11.969l-100.05-100.055c-1.773-1.77-2.75-4.129-2.75-6.637s0.977-4.863,2.75-6.637c3.66-3.66,9.617-3.66,13.273,0
	l55.887,55.887c0.008,0.004,0.012,0.012,0.02,0.02l33.219,33.219c3.906,3.902,10.238,3.902,14.145,0
	c3.902-3.906,3.902-10.238,0-14.145l-33.234-33.234c-3.645-3.66-3.641-9.605,0.012-13.258c3.66-3.66,9.617-3.66,13.277,0
	l33.219,33.219c3.906,3.906,10.234,3.906,14.141,0c3.906-3.902,3.906-10.234,0-14.141l-28.309-28.313
	c-0.004,0-0.004-0.004-0.008-0.008l-4.902-4.902c-1.77-1.77-2.75-4.129-2.75-6.637s0.98-4.863,2.75-6.637
	c3.66-3.66,9.617-3.66,13.277,0l19.684,19.684c0,0.004,0.004,0.004,0.004,0.008l13.531,13.531c3.906,3.902,10.234,3.902,14.141,0
	c3.906-3.906,3.906-10.238,0-14.145l-22.316-22.316c-1.77-1.773-2.746-4.129-2.746-6.637s0.977-4.863,2.75-6.637
	c1.77-1.773,4.129-2.75,6.637-2.75c2.504,0,4.863,0.977,6.637,2.75l81.059,81.059c1.953,1.953,4.512,2.93,7.07,2.93
	s5.121-0.977,7.074-2.93C512.973,347.027,512.973,340.695,509.07,336.789z M99.008,20h313.984c12.129,0,22,9.867,22,22v12H77.008V42
	C77.008,29.867,86.879,20,99.008,20z M226.797,201.293l-36.309-36.305c10.344-7.945,22.766-13.313,36.309-15.094V201.293z
	 M382.676,492H99.008c-12.129,0-22-9.871-22-22v-12.004h233.148c0.523,0,1.031-0.051,1.535-0.129l2.43,1.387
	C336.164,471.844,359.082,482.773,382.676,492z M303.152,385.383c-10.75-2.609-21.602,1-28.758,8.5H169.668v-28h120.878
	l21.711,21.711L303.152,385.383z M237.391,271.172c-8.145,8.145-10.492,19.918-7.055,30.164c-39-3.293-69.734-36.063-69.734-75.898
	c0-17.41,5.883-33.461,15.746-46.305l53.281,53.281c0.02,0.016,0.035,0.031,0.051,0.047c1.813,1.836,4.332,2.977,7.113,2.977h75.546
	c-2.285,17.461-10.535,33.508-23.5,45.621l-9.891-9.887C267.492,259.711,248.852,259.715,237.391,271.172z"/>
<path d="M107.012,162.188c-2.641,0-5.211,1.07-7.07,2.934c-1.871,1.859-2.93,4.43-2.93,7.066c0,2.633,1.059,5.211,2.93,7.07
	c1.859,1.863,4.438,2.93,7.07,2.93c2.629,0,5.207-1.066,7.066-2.93c1.859-1.859,2.934-4.438,2.934-7.07
	c0-2.629-1.07-5.207-2.934-7.066C112.219,163.258,109.641,162.188,107.012,162.188z"/>
</svg>
