<?xml version="1.0" encoding="utf-8"?>
<!-- Generator: Adobe Illustrator 16.0.0, SVG Export Plug-In . SVG Version: 6.00 Build 0)  -->
<!DOCTYPE svg PUBLIC "-//W3C//DTD SVG 1.1//EN" "http://www.w3.org/Graphics/SVG/1.1/DTD/svg11.dtd">
<svg version="1.1" id="Capa_1" xmlns="http://www.w3.org/2000/svg" xmlns:xlink="http://www.w3.org/1999/xlink" x="0px" y="0px"
	 width="841.89px" height="595.281px" viewBox="0 0 841.89 595.281" style="enable-background:new 0 0 841.89 595.281;"
	 xml:space="preserve">
<g>
	<g>
		<path d="M329.652,384.619c-2.162-2.162-5.161-3.395-8.219-3.395c-3.059,0-6.058,1.232-8.22,3.395
			c-2.163,2.174-3.406,5.174-3.406,8.221c0,3.068,1.243,6.057,3.406,8.219c2.163,2.174,5.161,3.406,8.22,3.406
			c3.058,0,6.057-1.232,8.219-3.406c2.163-2.162,3.408-5.152,3.408-8.219C333.06,389.792,331.815,386.792,329.652,384.619z"/>
	</g>
</g>
<g>
	<g>
		<path d="M718.585,395.195c0-23.48-16.5-43.168-38.51-48.111c5.211-7.818,8.256-17.197,8.256-27.277
			c0-27.194-22.125-49.319-49.318-49.319H509.632l16.924-50.247c6.832-20.278,5.199-41.923-4.594-60.947
			c-9.793-19.023-26.461-32.929-46.932-39.153l-20.398-6.2c-5.928-1.803-12.211,1.352-14.314,7.168l-32.054,88.587
			c-9.098,25.142-27.039,46.029-50.519,58.814l-32.021,17.438c-6.888-9.366-17.977-15.458-30.468-15.458H134.931
			c-6.42,0-11.626,5.206-11.626,11.626v301.537c0,6.42,5.207,11.627,11.626,11.627h160.326c13.909,0,26.079-7.557,32.643-18.773
			l16.411,6.438c20.879,8.188,42.836,12.338,65.26,12.338h203.158c27.193,0,49.318-22.125,49.318-49.318
			c0-10.162-3.09-19.611-8.377-27.467c21.592-5.248,37.678-24.734,37.678-47.918c0-10.361-3.219-19.98-8.699-27.926
			C703.357,436.802,718.585,417.75,718.585,395.195z M669.267,421.259h-27.24H588.63h-38.949c-6.42,0-11.627,5.205-11.627,11.625
			c0,6.422,5.207,11.627,11.627,11.627h38.949h53.396c14.373,0,26.066,11.693,26.066,26.066s-11.693,26.064-26.066,26.064h-29.299
			h-59.086h-3.959c-6.422,0-11.627,5.207-11.627,11.627s5.205,11.627,11.627,11.627h3.959h59.086
			c14.373,0,26.064,11.693,26.064,26.066c0,14.371-11.691,26.064-26.064,26.064H409.57c-19.507,0-38.607-3.611-56.77-10.732
			l-19.741-7.742V439.484c0-6.42-5.207-11.627-11.626-11.627c-6.42,0-11.626,5.207-11.626,11.627v117.992
			c0,8.021-6.526,14.549-14.55,14.549H146.558V293.741h148.699c8.022,0,14.55,6.526,14.55,14.55v39.477
			c0,6.422,5.206,11.627,11.626,11.627c6.42,0,11.626-5.205,11.626-11.627v-39.338l35.806-19.499
			c28.475-15.504,50.231-40.833,61.265-71.324l28.299-78.21l9.838,2.991c14.404,4.379,26.131,14.162,33.021,27.548
			s8.037,28.614,3.232,42.881l-22.09,65.584c-1.195,3.548-0.609,7.454,1.574,10.494c2.184,3.041,5.699,4.844,9.443,4.844h145.564
			c14.373,0,26.064,11.693,26.064,26.066s-11.691,26.064-26.064,26.064h-89.332c-6.42,0-11.627,5.207-11.627,11.627
			s5.207,11.627,11.627,11.627h38.883c0.023,0,0.045,0.004,0.066,0.004h80.637c14.371,0,26.064,11.693,26.064,26.064
			C695.332,409.566,683.638,421.259,669.267,421.259z"/>
	</g>
</g>
<g>
	<g>
		<path d="M250.235,483.119c-17.957,0-32.567,14.609-32.567,32.566s14.608,32.566,32.567,32.566s32.567-14.607,32.567-32.566
			C282.803,497.728,268.192,483.119,250.235,483.119z M250.235,525c-5.135,0-9.314-4.18-9.314-9.314s4.179-9.313,9.314-9.313
			c5.136,0,9.314,4.176,9.314,9.313C259.549,520.82,255.371,525,250.235,525z"/>
	</g>
</g>
<g>
	<g>
		<path d="M478.949,3.407C476.785,1.244,473.787,0,470.728,0c-3.057,0-6.057,1.243-8.219,3.407c-2.162,2.163-3.408,5.162-3.408,8.22
			c0,3.058,1.244,6.058,3.408,8.219c2.162,2.164,5.162,3.408,8.219,3.408c3.059,0,6.059-1.244,8.221-3.408
			c2.162-2.161,3.406-5.161,3.406-8.219C482.355,8.569,481.113,5.569,478.949,3.407z"/>
	</g>
</g>
<g>
	<g>
		<path d="M470.73,43.405c-6.42,0-11.627,5.207-11.627,11.627v28.292c0,6.42,5.207,11.626,11.627,11.626s11.627-5.207,11.627-11.626
			V55.032C482.357,48.612,477.152,43.405,470.73,43.405z"/>
	</g>
</g>
<g>
	<g>
		<path d="M623.316,152.617h-71.697c-6.42,0-11.625,5.206-11.625,11.627c0,6.42,5.205,11.626,11.625,11.626h71.697
			c6.42,0,11.627-5.207,11.627-11.626C634.943,157.824,629.736,152.617,623.316,152.617z"/>
	</g>
</g>
<g>
	<g>
		<path d="M389.81,152.586h-71.698c-6.42,0-11.626,5.207-11.626,11.626c0,6.42,5.205,11.626,11.626,11.626h71.698
			c6.42,0,11.626-5.206,11.626-11.626C401.437,157.792,396.23,152.586,389.81,152.586z"/>
	</g>
</g>
<g>
	<g>
		<path d="M413.212,90.261L379.361,56.41c-4.542-4.539-11.901-4.539-16.443,0c-4.541,4.541-4.541,11.902,0,16.444l33.852,33.851
			c2.271,2.27,5.246,3.405,8.221,3.405s5.951-1.136,8.221-3.405C417.752,102.164,417.752,94.802,413.212,90.261z"/>
	</g>
</g>
<g>
	<g>
		<path d="M578.531,56.432c-4.541-4.539-11.9-4.539-16.443,0l-33.85,33.851c-4.541,4.54-4.541,11.902,0,16.443
			c2.27,2.27,5.246,3.405,8.221,3.405c2.977,0,5.951-1.136,8.223-3.405l33.85-33.851C583.072,68.335,583.072,60.973,578.531,56.432z
			"/>
	</g>
</g>
</svg>
