<?xml version="1.0" encoding="utf-8"?>
<!-- Generator: Adobe Illustrator 16.0.0, SVG Export Plug-In . SVG Version: 6.00 Build 0)  -->
<!DOCTYPE svg PUBLIC "-//W3C//DTD SVG 1.1//EN" "http://www.w3.org/Graphics/SVG/1.1/DTD/svg11.dtd">
<svg version="1.1" id="Isolation_Mode" xmlns="http://www.w3.org/2000/svg" xmlns:xlink="http://www.w3.org/1999/xlink" x="0px"
	 y="0px" width="41.75px" height="67px" viewBox="0 0 41.75 67" style="enable-background:new 0 0 41.75 67;" xml:space="preserve">
<g>
	<path style="fill:#1D3461;" d="M20.684,0.25C9.413,0.328,0.338,9.526,0.417,20.797c0.077,11.27,20.721,45.7,20.721,45.7
		s20.17-34.71,20.092-45.979C41.152,9.247,31.953,0.173,20.684,0.25z M20.886,29.805c-5.401,0.037-9.81-4.312-9.847-9.712
		s4.312-9.81,9.713-9.846c5.4-0.037,9.809,4.312,9.846,9.712C30.635,25.359,26.287,29.768,20.886,29.805z"/>
	
		<linearGradient id="SVGID_1_" gradientUnits="userSpaceOnUse" x1="14.29" y1="60.0146" x2="36.2997" y2="21.8928" gradientTransform="matrix(1 -0.0069 0.0069 1 -1.0711 2.3169)">
		<stop  offset="0.1518" style="stop-color:#FFFFFF"/>
		<stop  offset="0.8912" style="stop-color:#FFFFFF;stop-opacity:0"/>
	</linearGradient>
	<path style="opacity:0.62;fill:url(#SVGID_1_);" d="M11.308,48.843c4.997,9.596,9.829,17.654,9.829,17.654
		s14.788-25.449,18.989-39.84C35.49,38.591,21.11,48.996,11.308,48.843z"/>
</g>
</svg>
